<mxfile host="app.diagrams.net" agent="Mozilla/5.0 (Macintosh; Intel Mac OS X 10_15_7) AppleWebKit/605.1.15 (KHTML, like Gecko) Version/18.5 Safari/605.1.15" version="27.1.6">
  <diagram id="blCMhbawATqotWnVSSYB" name="Page-2">
    <mxGraphModel dx="1826" dy="1284" grid="0" gridSize="10" guides="1" tooltips="1" connect="1" arrows="1" fold="1" page="0" pageScale="1" pageWidth="827" pageHeight="1169" math="0" shadow="0">
      <root>
        <mxCell id="0" />
        <mxCell id="1" parent="0" />
        <mxCell id="AAjYnL-fZVsWvcsN1xeV-7" style="edgeStyle=none;curved=1;rounded=0;orthogonalLoop=1;jettySize=auto;html=1;entryX=0;entryY=0.5;entryDx=0;entryDy=0;fontSize=12;startSize=8;endSize=8;sketch=1;curveFitting=1;jiggle=2;fillColor=#f5f5f5;strokeColor=#666666;" edge="1" parent="1" source="AAjYnL-fZVsWvcsN1xeV-1" target="AAjYnL-fZVsWvcsN1xeV-2">
          <mxGeometry relative="1" as="geometry" />
        </mxCell>
        <mxCell id="AAjYnL-fZVsWvcsN1xeV-1" value="FRONTEND" style="rounded=0;whiteSpace=wrap;html=1;sketch=1;curveFitting=1;jiggle=2;fillColor=#dae8fc;strokeColor=#6c8ebf;" vertex="1" parent="1">
          <mxGeometry x="-174" y="11" width="120" height="60" as="geometry" />
        </mxCell>
        <mxCell id="AAjYnL-fZVsWvcsN1xeV-5" value="OAUTH" style="edgeStyle=none;curved=1;rounded=0;orthogonalLoop=1;jettySize=auto;html=1;fontSize=12;startSize=8;endSize=8;sketch=1;curveFitting=1;jiggle=2;fillColor=#f5f5f5;strokeColor=#666666;" edge="1" parent="1" source="AAjYnL-fZVsWvcsN1xeV-2" target="AAjYnL-fZVsWvcsN1xeV-4">
          <mxGeometry relative="1" as="geometry" />
        </mxCell>
        <mxCell id="AAjYnL-fZVsWvcsN1xeV-2" value="BACKEND" style="rounded=0;whiteSpace=wrap;html=1;sketch=1;curveFitting=1;jiggle=2;fillColor=#d5e8d4;strokeColor=#82b366;" vertex="1" parent="1">
          <mxGeometry x="88" y="11" width="120" height="60" as="geometry" />
        </mxCell>
        <mxCell id="AAjYnL-fZVsWvcsN1xeV-3" value="DB" style="shape=cylinder3;whiteSpace=wrap;html=1;boundedLbl=1;backgroundOutline=1;size=15;sketch=1;curveFitting=1;jiggle=2;fillColor=#f8cecc;strokeColor=#b85450;" vertex="1" parent="1">
          <mxGeometry x="118" y="159" width="60" height="80" as="geometry" />
        </mxCell>
        <mxCell id="AAjYnL-fZVsWvcsN1xeV-4" value="" style="shape=image;html=1;verticalAlign=top;verticalLabelPosition=bottom;labelBackgroundColor=#ffffff;imageAspect=0;aspect=fixed;image=https://cdn4.iconfinder.com/data/icons/social-media-and-logos-11/32/Logo_Github-128.png" vertex="1" parent="1">
          <mxGeometry x="325" y="-23" width="128" height="128" as="geometry" />
        </mxCell>
        <mxCell id="AAjYnL-fZVsWvcsN1xeV-6" value="AUTH LOG" style="edgeStyle=none;curved=1;rounded=0;orthogonalLoop=1;jettySize=auto;html=1;entryX=0.5;entryY=0;entryDx=0;entryDy=0;entryPerimeter=0;fontSize=12;startSize=8;endSize=8;sketch=1;curveFitting=1;jiggle=2;" edge="1" parent="1" source="AAjYnL-fZVsWvcsN1xeV-2" target="AAjYnL-fZVsWvcsN1xeV-3">
          <mxGeometry relative="1" as="geometry" />
        </mxCell>
      </root>
    </mxGraphModel>
  </diagram>
</mxfile>
